<svg width="453" height="336" viewBox="0 0 453 336" fill="none" xmlns="http://www.w3.org/2000/svg">
<path d="M389.612 37.4553C351.23 6.6879 310.176 1.53683 293.85 0.386137C264.373 0.254851 234.903 0.131287 205.425 0C182.257 38.0963 159.089 76.2003 135.92 114.297C112.497 76.2003 89.0664 38.0963 65.6433 0H0C34.4203 55.9358 68.8406 111.872 103.261 167.808C68.9718 223.72 34.6828 279.633 0.386137 335.553H65.2572C123.564 240.695 181.871 145.829 240.177 50.9701H244.811C246.61 50.9701 248.418 50.9701 250.217 50.9701C251.507 50.9701 252.789 50.9701 254.078 50.9701H266.435C297.727 50.9933 317.405 57.1483 317.405 57.1483C332.765 61.9673 343.183 68.5702 346.365 70.6631C349.053 72.4316 357.802 78.3858 367.216 88.4254C372.198 93.7387 387.62 111.146 395.018 135.534C405.12 168.827 398.393 208.954 374.939 239.019C351.292 269.331 319.135 278.374 309.296 280.722C296.754 283.71 285.919 284.058 278.405 283.811C245.066 283.68 211.734 283.556 178.395 283.425C222.932 210.831 267.462 138.237 311.999 65.6433C311.219 65.4811 309.852 65.1954 308.137 64.871C300.801 63.4655 289.201 61.2954 274.93 61.0097C274.93 61.0097 274.227 61.0097 272.821 61.0097C270.69 61.0097 268.558 61.0097 266.435 61.0097C265.562 61.0097 252.063 61.0097 249.445 61.0097C193.71 152.524 137.982 244.039 82.2472 335.553C151.234 335.553 220.229 335.553 289.217 335.553C291.935 335.468 295.959 335.283 300.801 334.781C345.454 330.186 376.561 308.037 384.207 302.345C410.58 282.706 425.315 259.623 432.86 245.197C446.753 218.631 450.282 194.675 451.394 182.643C455.024 143.28 443.687 113.277 439.038 102.326C434.644 91.9779 420.89 62.5233 389.612 37.4553Z" fill="white"/>
</svg>
